/* XPM */
static char *c8917207733f4224eccaf845d508a1615qkrwvBwJt9YBtRW[] = {
/* columns rows colors chars-per-pixel */
"32 32 7 1 ",
"  c None",
". c #422632",
"X c #733D3B",
"o c #BF4830",
"O c #F77622",
"+ c #FDAE35",
"@ c #FEE861",
/* pixels */
"                                ",
"                                ",
"                                ",
"                                ",
"                                ",
"                                ",
"              O+@+              ",
"              O+@+              ",
"              XXoX              ",
"              XXOX              ",
"              XXOX              ",
"              XXoX              ",
"              XXoX              ",
"            ooXXXOoo            ",
"          ooXXXXXXOOoo          ",
"         oXXXXXXXXXXOOo         ",
"        oXXXXX++++XXXXOo        ",
"        oX...++++++...Oo        ",
"        oX.++++++++++.Oo        ",
"        oX...++++++...Oo        ",
"        oX....++++....Oo        ",
"        oX............Oo        ",
"        oX...........XOo        ",
"        oXXXXXXXXXXXXXXo        ",
"         X............X         ",
"                                ",
"                                ",
"                                ",
"                                ",
"                                ",
"                                ",
"                                "
};
