/* XPM */
static char *_9612a9d1b654544ae6e542d9b92250bU0LQLbA0sTPBAgrc[] = {
/* columns rows colors chars-per-pixel */
"24 32 96 2 ",
"   c None",
".  c #17111F",
"X  c #18111E",
"o  c #18111F",
"O  c #18121F",
"+  c #161120",
"@  c #171120",
"#  c #171220",
"$  c #171423",
"%  c #181220",
"&  c #181221",
"*  c #181321",
"=  c #191321",
"-  c #1A1220",
";  c #191322",
":  c #181323",
">  c #1A1420",
",  c #1A1421",
"<  c #191423",
"1  c #1A1422",
"2  c #1A1423",
"3  c #1B1423",
"4  c #1B1523",
"5  c #1E1420",
"6  c #191424",
"7  c #1B1524",
"8  c #1B1626",
"9  c #1C1524",
"0  c #1C1525",
"q  c #1E1524",
"w  c #1F1524",
"e  c #1C1625",
"r  c #1D1626",
"t  c #1D1726",
"y  c #1D1727",
"u  c #1E1727",
"i  c #1E1827",
"p  c #161B2B",
"a  c #151C2C",
"s  c #1E1828",
"d  c #1F1828",
"f  c #1F1929",
"g  c #1D182A",
"h  c #1E182A",
"j  c #281921",
"k  c #201929",
"l  c #20192A",
"z  c #201A2A",
"x  c #211A2A",
"c  c #201A2B",
"v  c #211A2B",
"b  c #211B2B",
"n  c #201A2C",
"m  c #211B2C",
"M  c #211B2D",
"N  c #221B2C",
"B  c #221B2D",
"V  c #221C2D",
"C  c #231C2D",
"Z  c #231C2E",
"A  c #231C2F",
"S  c #241D2E",
"D  c #241D2F",
"F  c #251E2F",
"G  c #341E21",
"H  c #251E30",
"J  c #241E31",
"K  c #251E31",
"L  c #162233",
"P  c #2B202F",
"I  c #382021",
"U  c #3A2429",
"Y  c #471D1F",
"T  c #4D1F1F",
"R  c #402323",
"E  c #422525",
"W  c #4D2223",
"Q  c #482826",
"!  c #44292C",
"~  c #592E23",
"^  c #583529",
"/  c #4A3735",
"(  c #683124",
")  c #7C462E",
"_  c #7F4F33",
"`  c #795238",
"'  c #785339",
"]  c #78543F",
"[  c #142D40",
"{  c #0F3043",
"}  c #114056",
"|  c #8D4E32",
" . c #9A5D36",
".. c #A2653B",
"X. c #B47946",
"o. c #C38147",
/* pixels */
"                                                ",
"                  S H H H                       ",
"                d y y S H H                     ",
"              S 6 X . k H H                     ",
"              d % % % % H N k                   ",
"              d % % % % u S 6 %                 ",
"              y a % L p 3 H H k                 ",
"            d % { 6 } [ % N H k                 ",
"            b % % % X X . y H N y               ",
"            S d % % % % y H y % i               ",
"            H H y % % < N k y % k               ",
"            k H < % X y y % % k H H             ",
"          S < < k % y C % % % H H H H           ",
"        H C C < k < N S % < Z H H H H           ",
"        N d f d k y S H < k S k d d H H         ",
"      H d d 6 d S d H H k % y % d N H H         ",
"      J d N U j S F H k $ y k y 6 k H H H       ",
"      N / ] ( G k H H E R d d k C 6 S H k       ",
"      d ^ | W $ Z H ! ..X._ Y q H S H H         ",
"        5 ' ' X k H F ) o. .T q H H S i         ",
"        $ X < < y S H Q ~ G X q H H N %         ",
"        % % X q % S H 3 $ y % y H S y           ",
"        % % % . % N d 6 < S q < H H % %         ",
"          % % $ 3 k d y i C < y S N %           ",
"            % % % d d 8 d d q < y y < %         ",
"            % y q < d i d < % < %   % %         ",
"            X k < X i y C < % % %     %         ",
"                y X i y d 6 < % %               ",
"                < i d y k q y X                 ",
"                y k d y k   k <                 ",
"                  k y y S                       ",
"                    N y                         "
};
