/* XPM */
static char *_06a5d63539843ebcf162d5e6cc60d56D0O90GOE11hEaYa6[] = {
/* columns rows colors chars-per-pixel */
"24 32 121 2 ",
"   c None",
".  c #180F1C",
"X  c #17111F",
"o  c #17121F",
"O  c #19101D",
"+  c #18101E",
"@  c #19101E",
"#  c #18111E",
"$  c #18111F",
"%  c #18121F",
"&  c #23131F",
"*  c #161120",
"=  c #171220",
"-  c #171422",
";  c #181220",
":  c #191220",
">  c #181221",
",  c #181321",
"<  c #191321",
"1  c #1A1220",
"2  c #1A1221",
"3  c #191322",
"4  c #181422",
"5  c #1A1422",
"6  c #1A1423",
"7  c #1B1423",
"8  c #1B1523",
"9  c #1B1524",
"0  c #1C1524",
"q  c #1C1525",
"w  c #1C1625",
"e  c #1C1626",
"r  c #1D1626",
"t  c #1D1726",
"y  c #1D1727",
"u  c #1E1727",
"i  c #161827",
"p  c #161929",
"a  c #161A29",
"s  c #151C2C",
"d  c #151D2D",
"f  c #141F2F",
"g  c #1E1828",
"h  c #1F1828",
"j  c #1F1829",
"k  c #1F1929",
"l  c #281422",
"z  c #251A27",
"x  c #201929",
"c  c #20192A",
"v  c #201A2A",
"b  c #211A2B",
"n  c #211B2B",
"m  c #221B2A",
"M  c #211B2C",
"N  c #221B2C",
"B  c #221B2D",
"V  c #221C2D",
"C  c #231C2D",
"Z  c #231C2E",
"A  c #221D2F",
"S  c #241D2E",
"D  c #241D2F",
"F  c #251E2F",
"G  c #29192B",
"H  c #2B1E2E",
"J  c #3F1C22",
"K  c #3D1D28",
"L  c #221D30",
"P  c #231D30",
"I  c #251E30",
"U  c #251E31",
"Y  c #261F30",
"T  c #261E31",
"R  c #261F31",
"E  c #281F30",
"W  c #132333",
"Q  c #142132",
"!  c #11293B",
"~  c #112A3C",
"^  c #112B3D",
"/  c #3B2122",
"(  c #36242D",
")  c #561B1E",
"_  c #491E21",
"`  c #442C2E",
"'  c #493435",
"]  c #652B26",
"[  c #652D26",
"{  c #653326",
"}  c #763926",
"|  c #7F442F",
" . c #0E3245",
".. c #0E3346",
"X. c #0E3447",
"o. c #0D3649",
"O. c #103042",
"+. c #123448",
"@. c #0A4055",
"#. c #09445A",
"$. c #09485E",
"%. c #074A60",
"&. c #074B61",
"*. c #055068",
"=. c #05536A",
"-. c #04546B",
";. c #04566E",
":. c #0D516A",
">. c #00657F",
",. c #81432C",
"<. c #8C5035",
"1. c #82553C",
"2. c #80583D",
"3. c #915638",
"4. c #9A5E3B",
"5. c #A1633B",
"6. c #AE6E3E",
"7. c #A47145",
"8. c #CE9151",
"9. c #006782",
"0. c #096480",
/* pixels */
"                      S I I                     ",
"                  A c x c I I                   ",
"                Y c $ $ w S I I                 ",
"                S < $ $ $ : c Z                 ",
"                S @ W +.o.W $ w I               ",
"              c 0 Q ;.9.9.-.f $ c I             ",
"              g O +.:.$.>.@.! $ t S             ",
"            I g $ s +.d O.&.! $ : A             ",
"            I t : p %.*.*.X.p $ : N I           ",
"            I c : $ i #...^ $ : : w S           ",
"              w = : $ < = - = : < A c S         ",
"        E Y   w : = : = : = : : t c $ c c       ",
"    5.] { ( L S e = $ : = : : w S e o z 2.7.6.  ",
"  3.] ) J A c c S < < e t < < S c $ o / } 4.8.  ",
"    ,.,.K L t g w c g c Y A < t e : o = _ <.1.  ",
"    ` ' H g < < : g S I L c < 0 w : = : & l G   ",
"      L A c < = o e I c : : : N c A < : : w     ",
"    I Y t = : : $ w I e : = = = : A A e w c     ",
"        g : : = : e I w = : = : : N S S A w :   ",
"        g : = : = : c L < = : = : N I I w : = : ",
"      I I $ : = < e t I w : w : = N I A :       ",
"      I   : = : : = g c N : N j : N Y w : :     ",
"        : = : = : $ g t c : N c = A S c : :     ",
"        = :   : = o c t c g w c : g w w : =     ",
"                : w w e g j w w = e <   :       ",
"              : 7 N : : c j w $ : = :   :       ",
"                A N : : c j w w = : :           ",
"                I g w w c j w w :               ",
"                    g w c c w   w               ",
"                    I w c g                     ",
"                        c w                     ",
"                                                "
};
