/* XPM */
static char *_33acd34ab034657a3c4ec4d167fd0ecvIblfodGoktxGjJx[] = {
/* columns rows colors chars-per-pixel */
"32 32 164 2 ",
"   c None",
".  c #17111F",
"X  c #17121F",
"o  c #18101E",
"O  c #19101E",
"+  c #18111F",
"@  c #1A101F",
"#  c #18121F",
"$  c #21131F",
"%  c #24121F",
"&  c #22151F",
"*  c #36171F",
"=  c #39171F",
"-  c #3B181F",
";  c #3C181F",
":  c #161120",
">  c #161220",
",  c #171220",
"<  c #171321",
"1  c #171422",
"2  c #171423",
"3  c #161524",
"4  c #161624",
"5  c #161625",
"6  c #161726",
"7  c #181220",
"8  c #191220",
"9  c #181221",
"0  c #191221",
"q  c #181321",
"w  c #191321",
"e  c #1B1220",
"r  c #1A1221",
"t  c #1A1321",
"y  c #181322",
"u  c #191322",
"i  c #1A1322",
"p  c #1B1322",
"a  c #1C1320",
"s  c #1E1320",
"d  c #1A1422",
"f  c #1A1423",
"g  c #1B1423",
"h  c #1B1523",
"j  c #1C1422",
"k  c #1C1523",
"l  c #1B1524",
"z  c #181726",
"x  c #1B1726",
"c  c #1C1524",
"v  c #1C1525",
"b  c #1C1625",
"n  c #1E1625",
"m  c #1C1626",
"M  c #1D1626",
"N  c #1D1726",
"B  c #1E1727",
"V  c #1B1827",
"C  c #1D1827",
"Z  c #1E1827",
"A  c #151928",
"S  c #161B2A",
"D  c #161D2D",
"F  c #171D2E",
"G  c #1E1828",
"H  c #1F1828",
"J  c #1F1829",
"K  c #1F1929",
"L  c #201320",
"P  c #211320",
"I  c #211721",
"U  c #261420",
"Y  c #271720",
"T  c #291820",
"R  c #201929",
"E  c #20192A",
"W  c #201A2A",
"Q  c #211A2A",
"!  c #211A2B",
"~  c #211B2B",
"^  c #221B2C",
"/  c #221B2D",
"(  c #221C2D",
")  c #231C2D",
"_  c #231C2E",
"`  c #231D2E",
"'  c #241C2D",
"]  c #241D2E",
"[  c #241D2F",
"{  c #251E2F",
"}  c #321620",
"|  c #331620",
" . c #341720",
".. c #3D1920",
"X. c #251E30",
"o. c #261F31",
"O. c #172436",
"+. c #1E2031",
"@. c #1D2032",
"#. c #182537",
"$. c #132738",
"%. c #112839",
"&. c #11293B",
"*. c #112A3C",
"=. c #142C3F",
"-. c #4B1A1F",
";. c #4F1B1F",
":. c #541C1F",
">. c #571C1F",
",. c #581F1F",
"<. c #5C2120",
"1. c #672B24",
"2. c #733522",
"3. c #7C3A24",
"4. c #743A2B",
"5. c #7E412D",
"6. c #172D40",
"7. c #192F43",
"8. c #0F3042",
"9. c #0F3144",
"0. c #0F3245",
"q. c #0E3548",
"w. c #0F3548",
"e. c #0E3649",
"r. c #0C384C",
"t. c #0C394D",
"y. c #163043",
"u. c #11364A",
"i. c #0B4257",
"p. c #0E455B",
"a. c #12455C",
"s. c #074E65",
"d. c #0E4D65",
"f. c #104960",
"g. c #104B63",
"h. c #055269",
"j. c #06526A",
"k. c #04556D",
"l. c #07556D",
"z. c #075770",
"x. c #075E78",
"c. c #05607B",
"v. c #00637D",
"b. c #83472F",
"n. c #854B34",
"m. c #864F36",
"M. c #8B4D31",
"N. c #875032",
"B. c #8A5032",
"V. c #9B5E39",
"C. c #AF7445",
"Z. c #C18249",
"A. c #026A86",
"S. c #026B87",
"D. c #00718D",
"F. c #017E9D",
"G. c #0188A9",
"H. c #008BAD",
"J. c #018CAE",
"K. c #008FB2",
"L. c #01A5CC",
"P. c #00A5CD",
"I. c #00AAD3",
"U. c #00AED7",
/* pixels */
"                            _ X.X.{ X.                          ",
"                        X.X._ G G _ X.X.                        ",
"                      X._ b b 3 q q _ {                         ",
"    V.1.B.          _ b q e.A.S.z.A q _ X.            n.C.      ",
"  M.<.:...q       E q @ e.J.U.U.P.x.S { {         Z.3.5.m.      ",
"  b.,.;.U , q   X.q q q j.G.I.P.F.D.&.b X.        T 2.4.N.I     ",
"  @ $ | | , q _   h q q @.D p.e.3 u.$.q { X.    { j Y % & q q   ",
"  q q ;..., j X.X._ q q 6.9.O.6.d.a.F @ j _   X._ j = | X , @ q ",
"  q @ * - X h {   { b q y.v.t.s.K.J.&.@ h E _ _ b $ :.* X , ,   ",
"  E h q j X X G G b E q @.i.e.8.k.p.V @ X E X.G h @ ; h X ,     ",
"X G b q 1 @ @ b X.h b b b q q o 1 G b q @ E X.E @ X @ X @ q     ",
"X G b @ X @ 1 C X.q @ q q #.&.d.6.=.q h G G { E @ 1 1 @ ,       ",
"@ C _ h X X h b E q q q a 7.j.c.k.t.@ C b h _ E 1 @ , @ ,       ",
"q , G 1 q X @ C X.q q b _ b 3 3 z 1 j C C G b _ b q , q         ",
"@ @ , @ @ q q E E R @ @ B _ b q q b { b X G h b ~ h 1           ",
"  q , q , , E E q ^ q q q B _ f f { b q @ E q h E E @ q         ",
"    X 1 q j E q X _ q q a q b _ E b q q b C q , q E q @         ",
"      @ @ E E q b b @ , _ q b q q c a q G h q @ h E q q         ",
"      q 1 h , q G h @ q E q G b q B b c G , q , q G h , q       ",
"        @ X , @ q q o R _ q E b q B b f G q @ @ @ b X           ",
"        q q @ q q q @ G h h X.b R B b o B b @ q , _             ",
"                @ , , h h b G b _ B b q f q q q q h q q         ",
"                  q , q h G h E _ B b q q q o b b X q           ",
"                C q @ q b C @ E _ B G f q q c                   ",
"              q q q @ b { q q E C G b G @ q E q q               ",
"                    , G b @ G _ b G @ E @ q { _                 ",
"                      , , @ G _ b _ h E h , E                   ",
"                      @ , q G X.b { b E G q B                   ",
"                    q q q b { _ h h C b   q q                   ",
"                      b E G { { q @ q _                         ",
"                      X.X.  X.  @ q                             ",
"                            X.      q                           "
};
