/* XPM */
static char *_6d64a30fa2248d9ff74be3b14187700A1ge5pH6STCpWuBF[] = {
/* columns rows colors chars-per-pixel */
"32 32 5 1 ",
"  c None",
". c #252B43",
"X c #8B9BB5",
"o c #C0CCDC",
"O c #ECF0F1",
/* pixels */
"                                ",
"                                ",
"       OOOOOOOOOOOOOOOOO        ",
"      ooooooooooooooooooO       ",
"      ooooooooooooooooooO       ",
"      ooooooooooooooooooO       ",
"      ooooooooooooooooooO       ",
"      ooo.ooooooooooooooO       ",
"      ooo.ooooooooooooooO       ",
"      ooo.ooooooooooooooO       ",
"      ooooooooooooooooooO       ",
"      ooooooooooooooooooO       ",
"      XXXXXXXXXXXXXXXXXXX       ",
"      OOOOOOOOOOOOOOOOOOO       ",
"      ooooooooooooooooooO       ",
"      ooooooooooooooooooO       ",
"      ooo.ooooooooooooooO       ",
"      ooo.ooooooooooooooO       ",
"      ooo.ooooooooooooooO       ",
"      ooo.ooooooooooooooO       ",
"      ooo.ooooooooooooooO       ",
"      ooooooooooooooooooO       ",
"      ooooooooooooooooooO       ",
"      ooooooooooooooooooO       ",
"      ooooooooooooooooooO       ",
"      ooooooooooooooooooO       ",
"      ooooooooooooooooooO       ",
"      ooooooooooooooooooO       ",
"       .................        ",
"       .................        ",
"                                ",
"                                "
};
