/* XPM */
static char *dd77a813e85e491ef3329de4123e36275VVwiXravExf5jSR[] = {
/* columns rows colors chars-per-pixel */
"32 32 6 1 ",
"  c None",
". c #181425",
"X c #3E2731",
"o c #593335",
"O c #733E39",
"+ c #8B9BB4",
/* pixels */
"          +              +   +  ",
"o.XX.ooXXXXXXoo..ooooooXXooooooo",
"oo...ooXXXXXoo.OO.ooooXooXoooooo",
"ooo..OoXXXXoo.OooO.ooXoooooooooo",
"oooo.OooXXooXOoXXoO..oXXXXoooooo",
"ooooXOoooooXooXXXXO.ooXXXXXo.ooo",
"ooooXoooooXooXXXXXo.oXXXXXXXo.oo",
"ooooX.OoooooXXXXXXoXoXXXXXXXo.Xo",
"oooX...XXooXXXXXXXoX.oXXXXXXo..X",
"XXX.XOOoooooXXXXXXo...oXXXXXo.Oo",
"o..XOoooooooXXXXXo.OOOooXXooXOoo",
"oo.OooXXXXo.oXXoo.OooooXoooXooXX",
"oo.OoXXXXXXo.ooo.OoXXXoo...ooXXX",
"ooXOoXXXXXXXo...ooXXXXXoo.ooXXXX",
"ooXOoXXXXXXXoXXXoXXXXXXoo.ooXXXX",
"oooooXXXXXXXo..XooXXXXXoo.ooXXXX",
"ooooooXXXXXo.OO.oooXXXXoo.XoXXXX",
"oXoooooXXXoXOooO.XXXoXXoo.XXoXXX",
".ooooXooooXOooooOOO.Xooo.OOO.ooo",
"ooXXoo.ooXOoooXXoooo.XXXOoooO.o.",
"oXXXXoo..XOooXXXXXXX....OooooX.o",
"oXXXXXoo..OoXXXXXXXX.XXXOoXXoooo",
"oXXXXXXoo.ooXXXXXXXX.XXXooXXXoo.",
".oXXXXXXoXooXXXXXXXX.XOOooXXXooo",
"o.oXXXXXoXoooXXXXXXo.OoooXXXXooo",
"oo.oXXXoooooooXXXXoo.OoXXXXXo.oo",
"ooo.oooXooooXooXXoo.XOoXXXXXo.oo",
"oooo...ooXXoo.oooo.XXooXXXXo..oo",
"ooooXXXoXXXXoo.XX.OOoXooXXo.XXoo",
"ooooXXoXXXXXXoo..OooooXooo.OOXoo",
"oooo.oXXXXXXXXo.OooooooXooOoooXo",
"oooo.oXXXXXXXXo.OoooooooXoooooo."
};
