/* XPM */
static char *_b5ffe2b266d441ace57b848f005daabknVoqMlBzk3scVXu[] = {
/* columns rows colors chars-per-pixel */
"32 32 40 1 ",
"  c None",
". c black",
"X c gray8",
"o c #262B38",
"O c #203834",
"+ c #4D3617",
"@ c #2E470D",
"# c #3D7211",
"$ c #26403B",
"% c #634733",
"& c #002F56",
"* c #2B4540",
"= c #1F4577",
"- c #28446C",
"; c #3C6C77",
": c #2D7075",
"> c #4E504C",
", c #4C6460",
"< c #617370",
"1 c #875844",
"2 c #96715E",
"3 c #7FA73B",
"4 c #D4997A",
"5 c #A5C769",
"6 c #096494",
"7 c #47668F",
"8 c #3874C2",
"9 c #3874EC",
"0 c #1293D4",
"q c #0F8BFF",
"w c #52B2D5",
"e c #829C98",
"r c #C8E48B",
"t c #FFCFB0",
"y c #B9C8C3",
"u c #85CEEB",
"i c #ADE1FF",
"p c LightGray",
"a c #FFE8CC",
"s c #E1F8EE",
/* pixels */
"         ##333333333##          ",
"       ##335rrrrrrr5553333#     ",
"      #35rrr555555rrrrr55#      ",
"     @35rrr555555555r533@       ",
"     #5r55r555555555rr553#      ",
"    @3555r55555r55r55rr553#     ",
"    #553rr5r55rrr5rr3rr#333#    ",
"   @33#5r53rr3rrr35r35r3##3#    ",
"   @3##5r33rr35r5#5r3#55#@@#    ",
"   ##@3553>5r33r5@3r3#35#@ @    ",
"   #@@1111135#35#>@5#@#5@       ",
"   @ @1ttt415##5#..3@t@3@       ",
"     @14444X3@t#p..@tt.#        ",
"      @1144X3aa#p--ttt.@        ",
"      .#@XXX#aaap--aaa.         ",
"       X@#@X4aaaaaaaaa.         ",
"      $<O,,,Otaaaaaaa4.         ",
"      O,eysse,O7aaat4.          ",
"     O,,,eeysseO771..           ",
"     O,eyyssye,89o.o            ",
"    O,e,OO,eyse=8e9=o           ",
"    Oe,O+%%++.O+o,8=o           ",
"   O,,O+%22%.+%%2%o+            ",
"   Oe,O.22%++...22%+            ",
"   Oe,O.22+2q2wi.%%+            ",
"  O,eOO.%2%202wu.+..            ",
"  Oe,OO+.%%%6%::.60             ",
"  Oe,OO+.+%%6%..%%+             ",
"  OeOO.++.+%&+&%22+             ",
"  .,OO.+%+....0%22%             ",
"  .,O...+%%+++6%%+.             ",
"   ..   ...**;;*.               "
};
