/* XPM */
static char *_e243a2f0b874d30c3c7f0114f5d422dAy172dc75MJeEdA4[] = {
/* columns rows colors chars-per-pixel */
"32 32 20 1 ",
"  c None",
". c black",
"X c #203834",
"o c #303234",
"O c #2E470D",
"+ c #3D7211",
"@ c #26403B",
"# c #1F3069",
"$ c #4E504C",
"% c #4C6460",
"& c #875844",
"* c #7FA73B",
"= c #D4997A",
"- c #A5C769",
"; c #47668F",
": c #829C98",
"> c #C8E48B",
", c #FFCFB0",
"< c #B9C8C3",
"1 c #99CFFF",
/* pixels */
"           ++++****++++O        ",
"         +++*--------***++++O   ",
"        +**+->>>>>>>>----**O    ",
"       +*--*>--->>>>>>>**+O     ",
"       *>--------*->>-->>**+    ",
"      O>-------->-**>>------*   ",
"      +>-->----*->-**->-*+****  ",
"     O*-->-*->--*->***->-*+OOOO ",
"     O--->-*>>->**>-***>--*O    ",
"     O-*--*+>>->-*--**+->*-+    ",
"    &&&.--*+--*--+*-*O+*>.&&&   ",
"    &,,=*-O+-*+*-O+-*oO+-=,,&   ",
"    .===*-Oo*+o+*oo*o$oO*===.   ",
"     .&=+*Oo+oo$+$$o$ooO*=&.O   ",
"      ..+*Oo$o$$o$$$ooOO+..O    ",
"        .+++++oooooo++OO.       ",
"         O+O+++++++O+OO.        ",
"      ..@@##+O+++++O+##@@..     ",
"     X%%%@@;;;;;;;;;;@@X%:%X    ",
"    X:%:%:%...11111@.X%%%:%%X   ",
"   X%<::<%::%XXXXXXX%%%%::%%%X  ",
"   %:<::<<%:<<<<<::::%%%:%%:%X  ",
"  X%<<<::<:XX:<<<:::%%%:<%%:%%X ",
"  X:<<<<:<<:%XXXXX%%%%:<<%::%%X ",
"  %:<<<<<:<<<:%%%%%%::<<:%::%%X ",
"  %<<:<<<<<<<<<<<<<::<<<%:::%%X ",
"  %<<:<<<<<<<<<<<::<<<<<%::%%%X ",
"  %<<::<<<<<<<<<<<<<<<<<:::%%%X ",
"  %<<::<<<<<<<<<<<<<<<<::::%%%X ",
"  XX%:::<<<<<<<<<<<<<<<:::%%%XX ",
"    XXX%::<<<<<<<<<<<<:::%XXX   ",
"       ...XX%%%%%%%%%XX...      "
};
