/* XPM */
static char *_438064cafae4491ef051877732b9428o4P5s3usWvbql8hL[] = {
/* columns rows colors chars-per-pixel */
"32 32 42 1 ",
"  c None",
". c black",
"X c #203834",
"o c #303234",
"O c #4D3617",
"+ c #2E470D",
"@ c #3D7211",
"# c #634733",
"$ c #002F56",
"% c #1F3069",
"& c #1F4577",
"* c #28446C",
"= c #3C6C77",
"- c #2D7075",
"; c #4E504C",
": c #4C6460",
"> c #875844",
", c #96715E",
"< c #7FA73B",
"1 c #D4997A",
"2 c #A5C769",
"3 c #096494",
"4 c #47668F",
"5 c #7F7D84",
"6 c #3874C2",
"7 c #3874EC",
"8 c #5489A0",
"9 c #1293D4",
"0 c #0F8BFF",
"q c #52B2D5",
"w c #829C98",
"e c gray58",
"r c #C8E48B",
"t c #FFCFB0",
"y c #82ADD4",
"u c #B9C8C3",
"i c #85CEEB",
"p c #99CFFF",
"a c #ADE1FF",
"s c LightGray",
"d c #FFE8CC",
"f c #E1F8EE",
/* pixels */
"         @@<<222<<@@++          ",
"    @<22rrrrrrrrrr22<@++        ",
"     +<<2222rrrrrrrr2<+@+       ",
"      +@<<rrrrrrr222r<<<<+      ",
"     @<<rr22rr2<22222<<2r<      ",
"    <222222rr<<2r222@<2<2r+     ",
"   <<<<@<2r2<@2r2<r<@<r<<r@     ",
"  ++++@<2r2<+<r2<22@o@2r<2<+    ",
"     +<22r<@@<r<@r<+;@<r<@<+    ",
"     @2<r2@;+<2+@2@o5+<2<@<+    ",
"    +<<<r<o5+@<o@<+;5;@<<+@+    ",
"    >>>.2@t>>+@d@+d>>>+<@.>>>   ",
"    >tt1<+te..+t+tt..e+<+1tt>   ",
"    .111<1ts..ttttt..s+@.111.   ",
"     .>1@1ts**ttttt**st+.1>.    ",
"      ...>ts**ddddd**st+...     ",
"       %4.1tdddddddddt1.4%      ",
"     %XX:XX1tdddddddt1XX:XX%    ",
"    %XwuffwXX11ttt11XXwfuuwX%   ",
"    X::wwuuw:Xpppy4X:wuuww::X   ",
"   X:wuffuww77X&7&X77::wfuuw:X  ",
"   X:XX::wuu76:767:67www::XX:X  ",
"   OO#O3$XX:::OO6OO:::XX$3O#OO  ",
"  :O#,0$ii.OXO#####OXO.ii$0,#O: ",
"  :#,,9-aq.O$#,,,,,#$O.qa-9,,#: ",
"  w#,0$-q$.$3#######3$.$q-$0,#w ",
"  wO,0O....O$3999993$O....O0,Ow ",
"  wO#9O.O.O#9#,###,#9#O.O.O9#Ow ",
"  w:O3#.O.O#0,,,,,,,0#O.O.#3O:w ",
"  ::XO3O.XO#3#,,,,,#3#OX.O3OX:: ",
"  X:XX....OO$O#####O$OO....XX:X ",
"   X..     .=8=. .=8=.     ..X  "
};
