/* XPM */
static char *_90b15847f5b42fdbc760f4390f29ab1Dg6hM92gK7iqb6G4[] = {
/* columns rows colors chars-per-pixel */
"32 32 45 1 ",
"  c None",
". c black",
"X c gray8",
"o c #262B38",
"O c #203834",
"+ c #303234",
"@ c #4D3617",
"# c #2E470D",
"$ c #3D7211",
"% c #26403B",
"& c #78611F",
"* c #634733",
"= c #002F56",
"- c #1F3069",
"; c #2B4540",
": c #1F4577",
"> c #28446C",
", c #3C6C77",
"< c #2D7075",
"1 c #4E504C",
"2 c #4C6460",
"3 c #617370",
"4 c #875844",
"5 c #96715E",
"6 c #7FA73B",
"7 c #D4997A",
"8 c #A5C769",
"9 c #096494",
"0 c #47668F",
"q c #7F7D84",
"w c #3874C2",
"e c #3874EC",
"r c #1293D4",
"t c #0F8BFF",
"y c #52B2D5",
"u c #829C98",
"i c gray58",
"p c #C8E48B",
"a c #FFCFB0",
"s c #B9C8C3",
"d c #85CEEB",
"f c #ADE1FF",
"g c LightGray",
"h c #FFE8CC",
"j c #E1F8EE",
/* pixels */
"       $$666666$$##             ",
"  $66668ppppp886$$$$##          ",
"   $8ppp88pp88886$666$#         ",
"    #668ppp888888668p6$#        ",
"   $68pppppppp8866888p6$        ",
"  $68p88pp8pp866868p6886#       ",
" $666$8pp6pp86$6886p8686$       ",
" $6$$68p68p86+$8pp66p6$66#      ",
" $##66p6$p86#1#8pp+6p86$6#      ",
" # #668$+p6#1q+6p81+686#$$      ",
"   #$66+16#1qq1$8644444##$      ",
"    #6#aa#..i7a$847aaa4# #      ",
"     $.aaa..g7a#6X77774#        ",
"     #.aaa>>gahh6X7744#         ",
"      .hhh>>ghhh$XXX#$.         ",
"      .hhhhhhhhh7X#$#X          ",
"      .7hhhhhhhaO222O3%         ",
"       .7ahhhhO2ujjsu2O         ",
"        ..00&Oujjsuu222O        ",
"        -o.oew2usjjssu2O        ",
"        o:euw:ujsu2OO2u2O       ",
"        o:w2o@O.@@**@O2uO       ",
"         @o*5**@.*55*@O22O      ",
"         @*55...@@*55.O2uO      ",
"         @**.fy5t5@55.O2uO      ",
"         ..@.dy5r5*5*.OOu2O     ",
"          r9.<<*9***.@OO2uO     ",
"          @**..*9**@.@OO2uO     ",
"          @55*=@=*@.@@.OOuO     ",
"          *55*r....@*@.OO2.     ",
"          .@**9@@@**@...O2.     ",
"            .;,,;;...   ..      "
};
