/* XPM */
static char *result[] = {
/* columns rows colors chars-per-pixel */
"32 32 7 1 ",
"  c #C28569",
". c #D77643",
"X c #8B9BB5",
"o c #BF4830",
"O c #733D3B",
"+ c #5B6986",
"@ c white",
/* pixels */
"   ..   .  .      .    ...      ",
"       X                X       ",
"oooooo XOoooooooooooooo XOoooooo",
"oooooo XOoooooooooooooo XOoooooo",
"oooooo XOoooooooooooooo XOoooooo",
"oooooo XOoooooooooooooo XOoooooo",
"oooooo XOoooooooooooooo XOoooooo",
"OOOOOO XOOOOOOOOOOOOOOO XOOOOOOO",
"+++++++X++++++++++++++++X+++++++",
"            X               X   ",
"ooooooooooo XOooooooooooooo XOoo",
"ooooooooooo XOooooooooooooo XOoo",
"ooooooooooo XOooooooooooooo XOoo",
"ooooooooooo XOooooooooooooo XOoo",
"ooooooooooo XOooooooooooooo XOoo",
"OOOOOOOOOOO XOOOOOOOOOOOOOO XOOO",
"++++++++++++X+++++++++++++++X+++",
"  X               X             ",
"o XOooooooooooooo XOoooooooooooo",
"o XOooooooooooooo XOoooooooooooo",
"o XOooooooooooooo XOoooooooooooo",
"o XOooooooooooooo XOoooooooooooo",
"o XOooooooooooooo XOoooooooooooo",
"O XOOOOOOOOOOOOOOOXOOOOOOOOOOOOO",
"++X+++++++++++++++X+++++++++++++",
"          X               X     ",
"ooooooooo XOooooooooooooo XOoooo",
"ooooooooo XOooooooooooooo XOoooo",
"ooooooooo XOooooooooooooo XOoooo",
"ooooooooo XOooooooooooooo XOoooo",
"ooooooooo XOooooooooooooo XOoooo",
"OOOOOOOOO XOOOOOOOOOOOOOO XOOOOO"
};
